<?xml version="1.0" standalone="no"?>
<!DOCTYPE svg PUBLIC "-//W3C//DTD SVG 20010904//EN"
 "http://www.w3.org/TR/2001/REC-SVG-20010904/DTD/svg10.dtd">
<svg version="1.0" xmlns="http://www.w3.org/2000/svg"
 width="1475.000000pt" height="493.000000pt" viewBox="0 0 1475.000000 493.000000"
 preserveAspectRatio="xMidYMid meet">

<g transform="translate(0.000000,493.000000) scale(0.100000,-0.100000)"
fill="#000000" stroke="none">
<path d="M1750 4919 c-399 -35 -752 -156 -1031 -355 -98 -70 -285 -253 -349
-341 -174 -243 -289 -540 -335 -863 -28 -200 -38 -536 -32 -1075 6 -497 15
-665 47 -840 152 -822 682 -1301 1575 -1421 181 -25 600 -25 775 -1 444 62
770 196 1040 429 262 225 444 558 524 959 38 187 45 270 58 681 13 427 0 1034
-27 1238 -45 329 -137 588 -295 824 -275 411 -734 674 -1315 751 -144 19 -490
27 -635 14z m154 -1140 c14 -17 26 -41 26 -55 0 -13 -16 -130 -35 -260 -19
-129 -35 -237 -35 -240 0 -2 127 -4 283 -4 l283 0 38 258 c21 141 42 265 47
274 5 9 21 26 35 37 25 19 40 21 196 21 102 0 177 -4 190 -11 11 -6 26 -25 33
-43 12 -29 10 -58 -20 -262 -19 -126 -35 -239 -35 -251 l0 -23 200 0 c288 0
280 7 280 -250 0 -164 -1 -170 -24 -197 l-24 -28 -254 -3 -253 -3 -49 -318
c-26 -175 -51 -330 -53 -345 l-5 -26 230 0 c158 0 239 -4 257 -12 48 -22 55
-51 55 -237 0 -165 -1 -171 -24 -198 l-24 -28 -280 -3 -280 -3 -10 -62 c-6
-34 -23 -145 -37 -247 -29 -205 -36 -228 -72 -262 -24 -22 -30 -23 -203 -23
-164 0 -180 2 -200 20 -12 11 -26 30 -31 41 -5 14 6 111 32 269 21 136 39 251
39 256 0 5 -126 9 -280 9 -216 0 -282 -3 -285 -12 -2 -7 -21 -123 -41 -258
-20 -134 -42 -257 -51 -273 -24 -47 -64 -57 -235 -57 -166 0 -192 7 -217 52
-14 24 -12 48 22 270 21 134 37 251 37 261 0 16 -17 17 -211 17 -125 0 -218 4
-230 10 -41 23 -49 60 -49 234 l0 166 29 32 29 33 254 3 255 3 49 342 50 342
-251 5 c-137 3 -251 7 -253 8 -1 1 -11 17 -22 35 -18 28 -20 50 -20 199 l0
168 29 32 29 33 280 3 281 3 5 27 c3 15 19 122 36 237 36 251 43 278 77 304
24 19 39 21 203 21 l178 0 26 -31z"/>
<path d="M1790 2738 c0 -2 -24 -157 -53 -345 l-53 -343 283 0 283 0 5 23 c5
26 95 645 95 658 0 8 -560 14 -560 7z"/>
<path d="M12034 3796 l-29 -24 -3 -158 c-2 -86 -1 -168 3 -181 3 -13 20 -32
38 -43 29 -18 51 -20 215 -20 265 0 262 -3 262 235 0 148 -1 155 -24 182 l-24
28 -205 3 -205 3 -28 -25z"/>
<path d="M5215 3695 l-25 -24 0 -1236 0 -1236 25 -24 c24 -25 25 -25 230 -25
205 0 206 0 230 25 l25 24 0 511 0 510 540 0 540 0 0 -510 0 -511 27 -25 26
-24 210 2 210 3 21 28 21 28 0 1231 0 1230 -28 24 c-28 24 -31 24 -231 24
l-203 0 -24 -26 -24 -26 -5 -491 -5 -492 -535 0 -535 0 -5 500 c-3 275 -6 501
-8 502 -1 1 -15 9 -32 18 -23 12 -69 15 -225 15 -195 0 -196 0 -220 -25z"/>
<path d="M8442 3079 c-346 -61 -588 -305 -673 -679 -40 -177 -35 -485 12 -668
104 -408 456 -643 929 -619 207 10 354 53 510 148 200 123 339 337 261 401
-21 16 -44 18 -230 18 l-206 0 -73 -76 c-84 -87 -157 -127 -265 -144 -133 -21
-240 14 -326 105 -76 80 -119 187 -136 338 l-6 57 626 0 c410 0 633 4 646 10
43 24 52 65 45 206 -12 229 -61 403 -155 546 -111 169 -253 273 -458 334 -78
24 -108 27 -268 30 -99 1 -204 -1 -233 -7z m361 -349 c138 -52 246 -233 247
-413 l0 -47 -402 2 -403 3 3 60 c10 214 120 365 297 412 69 17 187 10 258 -17z"/>
<path d="M13561 3069 c-386 -81 -613 -350 -652 -773 -15 -158 -5 -423 20 -541
87 -413 410 -645 901 -645 539 0 861 278 911 788 14 143 6 438 -16 537 -74
348 -316 578 -672 640 -126 22 -373 19 -492 -6z m432 -369 c118 -45 202 -164
233 -331 24 -126 15 -519 -13 -606 -58 -176 -171 -267 -350 -280 -179 -14
-316 55 -387 195 -56 110 -61 147 -61 422 0 271 6 318 51 415 48 103 126 166
245 200 75 21 206 14 282 -15z"/>
<path d="M9866 3029 c-50 -59 -69 -26 309 -538 143 -194 260 -358 259 -365 -1
-6 -141 -200 -312 -429 -171 -229 -316 -425 -322 -436 -16 -32 -12 -60 15 -86
24 -25 25 -25 220 -25 113 0 204 4 215 10 11 6 123 146 251 313 127 166 236
302 242 302 6 0 113 -135 238 -299 125 -165 238 -305 251 -312 17 -10 79 -13
225 -14 l202 0 20 26 c45 57 45 57 -305 518 -179 235 -324 431 -322 435 2 4
136 186 298 404 184 247 299 410 305 433 8 34 7 38 -23 65 l-32 29 -175 0
c-95 0 -185 -4 -198 -9 -15 -6 -106 -120 -243 -305 -121 -162 -222 -294 -226
-293 -4 1 -105 132 -225 292 -120 159 -229 295 -243 302 -17 9 -83 13 -212 13
l-186 0 -26 -31z"/>
<path d="M12065 3048 c-47 -25 -45 9 -45 -949 l0 -908 26 -20 c25 -20 40 -21
216 -21 187 0 189 0 213 25 l25 24 0 905 0 904 -31 26 c-30 26 -32 26 -207 26
-109 0 -185 -5 -197 -12z"/>
</g>
</svg>
