<svg width="19" height="19" viewBox="0 0 19 19" fill="none" xmlns="http://www.w3.org/2000/svg">
<path fill-rule="evenodd" clip-rule="evenodd" d="M13.314 0.75H5.68605C2.72388 0.75 0.75 2.86741 0.75 5.90652V13.0935C0.75 16.1354 2.71868 18.25 5.68605 18.25H13.314C16.2813 18.25 18.25 16.1354 18.25 13.0935V5.90652C18.25 2.86457 16.2813 0.75 13.314 0.75ZM5.68605 1.97093H13.314C15.5867 1.97093 17.0291 3.52014 17.0291 5.90652V13.0935C17.0291 15.4799 15.5867 17.0291 13.314 17.0291H5.68605C3.41325 17.0291 1.97093 15.4799 1.97093 13.0935V5.90652C1.97093 3.52331 3.41808 1.97093 5.68605 1.97093ZM9.5 5.90013C9.80905 5.90013 10.0645 6.12979 10.1049 6.42776L10.1105 6.5106V8.88179H12.4845C12.8216 8.88179 13.095 9.1551 13.095 9.49226C13.095 9.80131 12.8653 10.0567 12.5673 10.0971L12.4845 10.1027H10.1105V12.4739C10.1105 12.8111 9.83715 13.0844 9.5 13.0844C9.19094 13.0844 8.93553 12.8547 8.89511 12.5567L8.88953 12.4739V10.1027H6.5155C6.17835 10.1027 5.90504 9.82941 5.90504 9.49226C5.90504 9.1832 6.1347 8.92779 6.43267 8.88736L6.5155 8.88179H8.88953V6.5106C8.88953 6.17345 9.16285 5.90013 9.5 5.90013Z" fill="white"/>
</svg>
